<?xml version="1.0" encoding="iso-8859-1"?>
<!-- Uploaded to: SVG Repo, www.svgrepo.com, Generator: SVG Repo Mixer Tools -->
<svg version="1.1" id="Layer_1" xmlns="http://www.w3.org/2000/svg" xmlns:xlink="http://www.w3.org/1999/xlink" 
	 viewBox="0 0 508 508" xml:space="preserve">
<circle style="fill:#324A5E;" cx="254" cy="254" r="254"/>
<path style="fill:#2B3B4E;" d="M56,413.2c46.8,58,118,94.8,198,94.8s151.2-36.8,198-94.8H56z"/>
<polygon style="fill:#FFFFFF;" points="360,246.8 350.8,246.8 350.8,280.8 360,295.6 369.6,280.8 369.6,246.8 "/>
<g>
	<path style="fill:#E6E9EE;" d="M360,252.4L360,252.4c-8.8,0-15.6-6.8-16.4-15.2l-1.2-23.2H378l-1.6,23.2
		C376,245.6,368.8,252.4,360,252.4z"/>
	<path style="fill:#E6E9EE;" d="M362.8,184.8l-5.2-12c-8.4-20.4-31.6-30.4-52.4-23.2L258.4,166l-5.2-15.6c-5.6-16.8-21.6-28-39.6-28
		h-58v-4H214c19.6,0,36.8,12.4,43.2,30.8l4,11.6L304,146c22.8-8,48,3.2,57.2,25.2l5.2,12L362.8,184.8z"/>
</g>
<g>
	<path style="fill:#F9B54C;" d="M162,140.8H95.6c0,3.2,0.8,6.4,1.6,9.2l49.2,144c4.4,12.8,18,20,30.8,16c12.8-3.6,20.8-16.8,17.6-30
		L162,140.8z"/>
	
		<rect x="279.571" y="179.568" transform="matrix(-0.9629 -0.2699 0.2699 -0.9629 569.6085 456.2572)" style="fill:#F9B54C;" width="73.201" height="18.8"/>
</g>
<path style="fill:#FFD05B;" d="M282.8,152.4l-145.2-42c-17.6-5.2-36.4,4.8-41.2,22.4c-5.2,18.4,6.8,37.2,25.6,40.8l149.6,27.6
	c13.2,2.4,26-6,29.2-19.2C303.2,169.2,295.6,156,282.8,152.4z"/>
<circle style="fill:#F9B54C;" cx="129.2" cy="142" r="14"/>
<circle style="fill:#FFD05B;" cx="360" cy="200.8" r="26.4"/>
<circle style="fill:#F9B54C;" cx="360" cy="200.8" r="12"/>
<polygon style="fill:#FFD05B;" points="258.4,398.8 91.2,398.8 112.8,345.2 236.8,345.2 "/>
<g>
	<path style="fill:#F9B54C;" d="M262.8,413.2h-176c-4.8,0-8.8-4-8.8-8.8l0,0c0-4.8,4-8.8,8.8-8.8h176c4.8,0,8.8,4,8.8,8.8l0,0
		C271.6,409.2,267.6,413.2,262.8,413.2z"/>
	<path style="fill:#F9B54C;" d="M239.6,350H110c-4.8,0-8.8-4-8.8-8.8l0,0c0-4.8,4-8.8,8.8-8.8h129.6c4.8,0,8.8,4,8.8,8.8l0,0
		C248,346,244.4,350,239.6,350z"/>
</g>
<path style="fill:#FFD05B;" d="M223.2,332.8h-96.8v-16.4c0-26.8,21.6-48.4,48.4-48.4l0,0c26.8,0,48.4,21.6,48.4,48.4L223.2,332.8
	L223.2,332.8z"/>
<circle style="fill:#F9B54C;" cx="174.8" cy="303.6" r="9.6"/>
</svg>